<?xml version="1.0" encoding="utf-8"?>
<!-- Generator: Adobe Illustrator 27.9.0, SVG Export Plug-In . SVG Version: 6.00 Build 0)  -->
<svg version="1.1" id="Layer_1" xmlns="http://www.w3.org/2000/svg" xmlns:xlink="http://www.w3.org/1999/xlink" x="0px" y="0px"
	 viewBox="0 0 363.8 333.1" style="enable-background:new 0 0 363.8 333.1;" xml:space="preserve">
<style type="text/css">
	.st0{fill:#FFA3AD;}
	.st1{fill:#FF6E9B;}
</style>
<g>
	<path class="st0" d="M89.3,181.9c-26.4,0-47.7,21.4-47.7,47.7s21.4,47.7,47.7,47.7s47.7-21.4,47.7-47.7S115.6,181.9,89.3,181.9z
		 M89.4,263.8L89.4,263.8l-0.1-0.1c-18.8,0-34.1-15.3-34.1-34.1s15.3-34.1,34.1-34.1s34.1,15.3,34.1,34.1S108.2,263.7,89.4,263.8z"
		/>
	<path class="st0" d="M277.3,181.9c-26.4,0-47.7,21.4-47.7,47.7s21.4,47.7,47.7,47.7s47.7-21.4,47.7-47.7S303.7,181.9,277.3,181.9z
		 M277.5,263.8h-0.1v-0.1c-18.8,0-34.1-15.3-34.1-34.1s15.3-34.1,34.1-34.1c18.8,0,34.1,15.3,34.1,34.1S296.3,263.7,277.5,263.8z"/>
	<path class="st1" d="M291.1,50.8c-8.2-21.6-32.4-32.5-54-24.3c-16.1,6.1-26.8,21.5-27,38.7l-0.9,16h-51.8l-0.9-15.5
		c0.1-23.1-18.6-41.9-41.8-42c-17.5,0-33.2,10.8-39.3,27.2c-63.1,166.3-62.6,160-62.6,178.9c1.3,42.2,36.5,75.4,78.7,74.1
		c40.4-1.2,72.9-33.7,74.1-74.1c0-2.5-0.5-10.7-0.6-13h36.6c0,0.7-0.6,11.4-0.6,13c1.3,42.2,36.5,75.4,78.7,74.1
		c40.4-1.2,72.9-33.7,74.1-74.1C353.8,204.8,344.5,195.4,291.1,50.8z M88.2,55.8c5.6-14.5,22-21.8,36.5-16.1
		c10.9,4.2,18,14.7,18,26.3l0.3,5.9c-17.1-11.8-38.9-14.5-58.4-7.3L88.2,55.8z M77.5,84.1c8.6-6.3,18.9-9.7,29.5-9.7
		c14.2,0,27.7,6,37.3,16.5l4.9,91.9c-14.4-18.6-36.5-29.5-59.9-29.6c-15.5,0-30.6,4.8-43.2,13.6L77.5,84.1z M152,229.7
		c-0.1,34.6-28.1,62.6-62.7,62.7v0.1c-34.7,0-62.8-28.1-62.9-62.7c0-34.7,28.1-62.8,62.7-62.9c34.7,0,62.8,28.1,62.9,62.7
		C152,229.6,152,229.7,152,229.7z M202.7,203.1h-38.4l-1.1-19.2h40.6L202.7,203.1z M204.2,170.2h-41.7l-4.3-75.4h50.3L204.2,170.2z
		 M223.7,65.7c-0.1-15.6,12.5-28.3,28.1-28.4h0.1c11.9-0.1,22.6,7.3,26.8,18.4l3.3,8.9c-19.5-7.2-41.3-4.5-58.4,7.3L223.7,65.7
		L223.7,65.7z M222.6,90.7c9.6-10.5,23.1-16.5,37.3-16.5c10.6,0,21,3.4,29.5,9.8l31.4,82.7c-12.7-8.9-27.8-13.6-43.2-13.6
		c-23.6,0.1-45.8,11.1-60.2,29.7L222.6,90.7z M277.3,292.4c-34.7,0-62.8-28.1-62.8-62.8s28.1-62.8,62.8-62.8s62.8,28.1,62.8,62.8
		c0,0,0,0,0,0.1C340.1,264.3,312,292.4,277.3,292.4z"/>
</g>
</svg>
