<?xml version="1.0" encoding="utf-8"?>
<!-- Generator: Adobe Illustrator 27.9.0, SVG Export Plug-In . SVG Version: 6.00 Build 0)  -->
<svg version="1.1" id="Layer_1" xmlns="http://www.w3.org/2000/svg" xmlns:xlink="http://www.w3.org/1999/xlink" x="0px" y="0px"
	 viewBox="0 0 363.8 333.1" style="enable-background:new 0 0 363.8 333.1;" xml:space="preserve">
<style type="text/css">
	.st0{fill:#FFA3AD;}
	.st1{fill:#FF6E9B;}
</style>
<g>
	<path class="st0" d="M335.4,47.3c-9.4-1.7-18.8-3.4-28.2-5.1c-1.2-8.9-2.4-17.9-3.6-26.8c-0.8-5.5-8.5-6.6-11.9-3.1
		c-12.4,12.1-24.7,24.5-37,36.8c-7.4,7.4-14.7,14.7-22.1,22.1c-1.6,1.6-3.4,3.3-5,5c-2.6,2.8-2.4,5.8-2.4,9.3
		c-0.1,9.3-0.1,18.6-0.2,27.9c-16.1,16.1-32.1,32.1-48.2,48.2c-2.4,2.4-4.9,4.9-7.3,7.3c-6.5,6.5,3.6,16.6,10.1,10.1
		c16.8-16.8,33.5-33.5,50.2-50.2c1.4-1.4,2.8-2.8,4.2-4.2c8.7,0.5,17.4,0.9,26.1,1.4c4.4,0.2,9.9,1.5,13.5-1.6
		c1.1-1.1,2.2-2.2,3.4-3.4c15.6-15.6,31-31,46.6-46.6c5-5,9.9-9.9,14.9-14.9C342,55.7,340.8,48.2,335.4,47.3z M271.6,105.9
		c-2,2-3.9,3.9-5.8,5.8c-8.8-0.5-17.6-0.9-26.4-1.4c0.1-8.6,0.1-17.2,0.2-25.8c17.3-17.3,34.7-34.7,52.1-52.1
		c0.8,5.9,1.6,11.8,2.4,17.7c0.3,2.2,2.9,4.6,5,5c6.6,1.2,13.2,2.4,19.8,3.6C303.1,74.4,287.4,90.1,271.6,105.9z"/>
	<path class="st1" d="M182.6,133.1c3.8,0.7,7.7-1.1,8.8-5c0.9-3.5-1.2-8.1-5-8.8c-19.1-3.6-38.9,2-52.2,16.3
		c-12.6,13.6-17.7,32.9-13.4,51c4.2,17.9,17.6,32.4,34.6,39c16.8,6.5,37,3.9,51.7-6.8c18.1-13.3,26.4-35.1,22.1-57.1
		c-0.7-3.8-5.3-5.9-8.8-5c-4.1,1.3-5.9,5.1-5.1,8.9c2.8,14.2-2.1,28.8-12.6,38.5c-10,9.2-24.4,12.9-37.6,9.6
		c-12.8-3.1-23.9-12.5-28.7-25c-5.1-13.1-3.2-28,5-39.5C150.5,136.5,167,130.1,182.6,133.1z"/>
	<path class="st1" d="M214,84c1.1-3.9-1.4-7.5-5-8.8c-36.7-12.7-78.3-3.7-106.3,23.1c-26.1,24.8-37.3,62.2-29.9,97.3
		c7.3,34.7,32.8,63.4,65.7,75.8c34,12.8,72.9,6.1,101.2-16.3c29.1-23,43.3-60.5,38-97c-0.8-5.6-2.1-11.2-3.9-16.6
		c-2.8-8.6-16.6-4.9-13.8,3.9c10.3,32.3,2.2,67.9-21.8,92c-21.8,21.8-54.1,31.1-84.1,24c-29.6-7-54.5-29-64.4-58
		c-10-29.1-4.6-62.5,15.1-86.4c24.3-29.5,64.3-40.5,100.4-28C208.9,90.3,213,87.6,214,84z"/>
	<path class="st1" d="M312.9,117c-1.5-3.6-4.7-6.1-8.8-5c-3.4,0.9-6.4,5.2-4.9,8.8c20.1,48.7,10.9,105.7-25,144.6
		c-32.2,34.8-81.4,50.7-128,40.7c-45.5-9.8-84-43.5-99.3-87.6C31.4,173.4,40.8,121.9,72,85.7c33-38.1,85.2-55.4,134.3-43.5
		c7.5,1.8,14.7,4.2,21.8,7.2c3.6,1.5,7.9-1.6,8.8-5c1.1-4.1-1.4-7.3-5-8.8c-53-22.2-115.5-11-157.9,27.5
		C34.9,98.6,17.6,153.4,28.5,205c10.6,50.5,48,92.4,96.4,109.7c49.7,17.8,106.3,6.9,146.5-27c42.3-35.7,61.2-93.5,49-147.4
		C318.6,132.3,316.1,124.6,312.9,117z"/>
</g>
</svg>
