<?xml version="1.0" encoding="utf-8"?>
<!-- Generator: Adobe Illustrator 27.9.0, SVG Export Plug-In . SVG Version: 6.00 Build 0)  -->
<svg version="1.1" id="Layer_1" xmlns="http://www.w3.org/2000/svg" xmlns:xlink="http://www.w3.org/1999/xlink" x="0px" y="0px"
	 viewBox="0 0 363.8 333.1" style="enable-background:new 0 0 363.8 333.1;" xml:space="preserve">
<g>
	<path d="M328.6,201.1c-6.3-5.2-15.1-6.5-22.7-3.4L260,216.5c-3-2.3-6.6-3.8-10.3-4.3l-119.4-17c-6.3-0.9-12.8-0.2-18.6,1.9
		L16,231.7c-3.7,1.3-5.6,5.3-4.4,9l20.6,63.9c0.6,1.9,1.9,3.4,3.7,4.3c1.8,0.9,3.8,1,5.6,0.3l29.1-10.5c4.1-1.5,8.6-1.6,12.7-0.3
		L197,333.1c3.2,1,6.5,1.5,9.8,1.5c6.9,0,13.5-2.1,19.2-6.1l124.1-87.4c6.1-4.3,9.7-11.3,9.7-18.7c0-4.4-1.3-8.7-3.7-12.4
		C350.3,200.9,338.5,197.2,328.6,201.1z M268.3,228.8l43.1-17.7l0,0c0.3-0.1,0.5-0.2,0.8-0.3l-43.3,27c0.1-1,0.2-2.1,0.2-3.2
		C269.1,232.7,268.9,230.7,268.3,228.8z M128.3,209.6l119.4,17c4,0.6,7,4,7,8.1c0,2.2-0.8,4.2-2.3,5.7c-1.5,1.5-3.5,2.4-5.7,2.4
		l-62.3,1l-42.6,0.7c-1.9,0-3.7,0.8-5.1,2.2c-1.3,1.4-2.1,3.2-2,5.1c0,3.9,3.3,7.1,7.2,7.1l40.8-0.6l24,14.2
		c10.8,6.4,24.1,6.2,34.7-0.4l91.2-56.8c3.9-2.4,9.1-1.3,11.6,2.6c0.9,1.4,1.4,3,1.4,4.6c0,2.7-1.3,5.3-3.6,6.8l-124.1,87.4
		c-4.8,3.4-10.8,4.4-16.5,2.6L87.5,284.5c-3.4-1-6.8-1.5-10.1-1.5c-4,0-8,0.7-11.7,2l-22,7.9l-16.1-50.1l89.1-32.1
		C120.3,209.5,124.4,209,128.3,209.6z M213.9,260l-3.7-2.2l27.3-0.4l-3.9,2.4C227.6,263.5,220.1,263.6,213.9,260z"/>
	<path d="M228,177.7c1.3,1.3,3,2,4.8,2c0.1,0,0.2,0,0.4,0h0.7c1.8,0,3.5-0.7,4.8-2l78.9-78.9c9.9-9.9,15.4-23.2,15.4-37.3
		c0-14.1-5.5-27.3-15.4-37.3c-9.9-9.9-23.2-15.4-37.3-15.4c0,0,0,0,0,0c-14.1,0-27.3,5.5-37.3,15.4l-9.7,9.7l-9.7-9.7
		c-20.6-20.5-54-20.5-74.5,0c-9.9,9.9-15.4,23.2-15.4,37.3c0,14.1,5.5,27.3,15.4,37.3L228,177.7z M147.1,61.4
		c0-10.5,4.1-20.4,11.5-27.8c7.4-7.4,17.3-11.5,27.8-11.5s20.3,4.1,27.8,11.5l14.2,14.2c1.2,1.2,3,2,4.8,2h0.6c1.8,0,3.5-0.7,4.8-2
		l14.2-14.2c15.3-15.3,40.2-15.3,55.5,0c15.3,15.3,15.3,40.2,0,55.5l-74.7,74.7l-74.7-74.7C151.2,81.8,147.1,71.9,147.1,61.4z"/>
</g>
</svg>
