<?xml version="1.0" encoding="utf-8"?>
<!-- Generator: Adobe Illustrator 27.9.0, SVG Export Plug-In . SVG Version: 6.00 Build 0)  -->
<svg version="1.1" id="Layer_1" xmlns="http://www.w3.org/2000/svg" xmlns:xlink="http://www.w3.org/1999/xlink" x="0px" y="0px"
	 viewBox="0 0 1920 1080" style="enable-background:new 0 0 1920 1080;" xml:space="preserve">
<style type="text/css">
	.st0{clip-path:url(#SVGID_00000159440614430821785620000013409828739549799317_);fill:#FF8881;}
	.st1{clip-path:url(#SVGID_00000159440614430821785620000013409828739549799317_);fill:#F55623;}
	.st2{clip-path:url(#SVGID_00000159440614430821785620000013409828739549799317_);fill:#FF6E99;}
	.st3{clip-path:url(#SVGID_00000176006454274401283270000018006832218146104227_);fill:#FF6D9F;}
	.st4{clip-path:url(#SVGID_00000176006454274401283270000018006832218146104227_);}
	.st5{fill:#FF8881;}
	.st6{fill:#F55623;}
	.st7{fill:#FF6D9F;}
	.st8{clip-path:url(#SVGID_00000088106604127894447970000018280493843899758498_);}
	.st9{fill:#FF6F61;}
	.st10{fill:#FAF6EA;}
	.st11{fill:#FFA6B0;}
	.st12{fill:#FFEB8E;}
	.st13{fill:#F95623;}
	.st14{fill:#FF6E9E;}
	.st15{fill:#E3D7C6;}
</style>
<g>
	<defs>
		
			<rect id="SVGID_00000024715225332672918360000016090407699252879003_" x="270.2" y="928.8" transform="matrix(-1.566642e-10 1 -1 -1.566642e-10 2165.8381 928.7679)" width="696.7" height="1237.1"/>
	</defs>
	<clipPath id="SVGID_00000094577906001222947560000005191017314963248529_">
		<use xlink:href="#SVGID_00000024715225332672918360000016090407699252879003_"  style="overflow:visible;"/>
	</clipPath>
	<g style="clip-path:url(#SVGID_00000094577906001222947560000005191017314963248529_);">
		<rect x="6.7" y="815.6" class="st5" width="725.1" height="1289"/>
		<path class="st6" d="M6.7,1022.6c0,0,373.2-95.9,417.4,186.5s-266.6,679.5-266.6,679.5L6.7,2094.8L6.7,1022.6z"/>
		<path class="st7" d="M509.5,1665.3c-105.3,140.3-248.7,325.6-189.2,415.8c6.6,10,15.1,17.7,24.9,23.6l165.6,0
			c43.9-12.3,77.3-27.3,77.3-27.3l143.5-58l0.2,85.3l0-1289l-0.2,452.5C731.6,1268.2,600.3,1544.4,509.5,1665.3"/>
		<path class="st6" d="M320.3,2081.1c-59.5-90.1,83.9-275.5,189.2-415.8c90.8-120.9,222.1-397.1,222.1-397.1
			c65-148.7,61.9-299.7,0.2-452.5l-574.2,0c169.6,47.9,322.3,189.2,343.2,212.1c61.6,67.6,174.8,193.6,38.4,463.2
			c-155.9,308.1-365.1,373.8-357.1,613.7l163.1,0C335.4,2098.8,326.9,2091.1,320.3,2081.1"/>
	</g>
</g>
<g>
	<defs>
		
			<rect id="SVGID_00000020376877495475572800000000287281425210206357_" x="1512.2" y="928.8" transform="matrix(1.566721e-10 -1 1 1.566721e-10 313.2156 3407.8215)" width="696.7" height="1237.1"/>
	</defs>
	<clipPath id="SVGID_00000100376614860240871130000010577950028825596091_">
		<use xlink:href="#SVGID_00000020376877495475572800000000287281425210206357_"  style="overflow:visible;"/>
	</clipPath>
	<g style="clip-path:url(#SVGID_00000100376614860240871130000010577950028825596091_);">
		<rect x="1871.5" y="990" class="st5" width="725.1" height="1289"/>
		<path class="st6" d="M2283,1013.6c59.5,90.1-83.9,275.5-189.2,415.8c-90.8,120.9-222.1,397.1-222.1,397.1
			c-65,148.7-61.9,299.7-0.2,452.5h574.2c-169.6-47.9-322.3-189.2-343.2-212.1c-61.6-67.6-174.8-193.6-38.4-463.2
			c155.9-308.1,365.1-373.8,357.1-613.7l-163.1,0C2268,995.8,2276.4,1003.5,2283,1013.6"/>
	</g>
</g>
<path id="u_00000168837081123816998100000000645940242617741441_" d="M1151.6,474.2c2.1,0,2.7,0.9,2.7,2.7v81
	c0,17.3,8.8,29.7,29.1,29.7c17.6,0,29.1-12.4,29.1-29.4v-81c0-2.1,0.9-3,3-3h18.5c1.8,0,3,0.9,3,2.7v127c0,2.1-0.9,3-2.7,3h-17.9
	c-2.1,0-2.7-0.9-2.7-3v-7.9l-0.9-0.3c-9.4,8.8-24.6,12.7-35.8,12.7c-30,0-47.1-20.3-47.1-50.3v-81c0-2.1,0.9-3,2.7-3H1151.6z"/>
<path id="g_00000153683168884729033780000011292195038503880330_" d="M1009.3,557.9c-14.3-6.4-22.2-23.1-22.2-39.4
	c0-25.7,23.1-45.8,50.2-45.8c12.9,0,27.2,3.5,35.3,12c8.8-7,18.4-11.1,27.7-11.1c3.2-0.3,4.1,1.5,4.1,4.4v14.9
	c0,3.2-0.3,3.5-4.4,3.2c-5.3-0.3-12.3,0.3-16.1,1.7c4.1,7.3,5.8,13.7,5.8,20.7c0,26.8-24,46.1-52.6,46.1c-3.2,0-5.6,0.3-6.7,0.6
	c-9.9,2.3-20.7,13.7-20.2,22.2c13.4-3.5,28-4.4,34.5-4.4c26.9,0,58.1,8.2,58.1,37.9c0,16.9-15.5,33-30.7,39.4
	c-2.9,1.5-4.7,0.6-6.1-1.7l-6.4-9.9c-1.2-1.8-0.6-3.5,1.7-5c9.6-5.8,17.5-14.3,17.5-21.9c0-14.3-18.7-18.1-33.6-18.1
	c-12.6,0-29.5,2.3-43.8,4.7c-4.7,0.6-5.8-0.6-7.3-2.6c-3.5-5-5.3-12-5.3-19.3c0-10.5,8.2-21.6,20.1-28L1009.3,557.9L1009.3,557.9z
	 M1010.5,519.7c0,14,9.9,26.5,26.9,26.5c18.1,0,28.6-12,28.6-26.5c0-14.3-11.1-26.8-26.9-26.8
	C1021.6,492.8,1010.5,505.4,1010.5,519.7z"/>
<path id="n_00000041995813476687973680000010932968796811976597_" d="M940.2,608.5c-2.1,0-2.7-0.9-2.7-2.7v-81
	c0-17.3-8.8-29.7-29.1-29.7c-17.6,0-29.1,12.4-29.1,29.4v81c0,2.1-0.9,3-3,3h-18.5c-1.8,0-3-0.9-3-2.7V478.7c0-2.1,0.9-3,2.7-3h17.9
	c2.1,0,2.7,0.9,2.7,3v7.9l0.9,0.3c9.4-8.8,24.6-12.7,35.8-12.7c30.1,0,47.1,20.3,47.1,50.3v81c0,2.1-0.9,3-2.7,3H940.2z"/>
<path id="i_00000159438586124491209330000004613560877093287059_" d="M804.8,478.7c0-2.1,0.9-3,2.7-3h18.8c2.1,0,3,0.9,3,3v127.1
	c0,2.1-0.6,2.7-2.7,2.7h-18.8c-1.8,0-3-0.9-3-2.7V478.7z"/>
<path id="s_00000049912880380410302730000013550728784562587029_" d="M683.1,579.2c-0.6-1.5-0.3-2.7,1.2-3.3l15.3-6.9
	c1.8-0.9,3,0.3,3.6,1.5c6,11.4,17.1,18.6,30.6,18.6c12.9,0,22.5-7.8,22.5-16.8c0-9.6-7.2-13.8-18.9-18.3
	c-18.6-7.2-50.8-14.1-50.8-42.9c0-24.3,21.6-36.6,45.3-36.9c16.5-0.3,32.7,5.4,44.2,17.7c1.5,1.5,0.9,3.3-0.9,5.1l-8.1,9.3
	c-2.1,2.4-4.2,2.1-6.9-0.3c-8.1-7.2-18.6-11.7-28.5-11.7c-13.2,0-21.6,5.7-21.6,15c0,8.7,7.2,13.8,18.6,18
	c23.4,8.7,50.8,15.3,50.8,44.1c0,20.1-17.1,37.2-47.5,37.2C710.7,608.6,691.2,599,683.1,579.2z"/>
<ellipse cx="817.1" cy="434" rx="15" ry="15"/>
</svg>
