<?xml version="1.0" encoding="utf-8"?>
<!-- Generator: Adobe Illustrator 27.9.0, SVG Export Plug-In . SVG Version: 6.00 Build 0)  -->
<svg version="1.1" id="Layer_1" xmlns="http://www.w3.org/2000/svg" xmlns:xlink="http://www.w3.org/1999/xlink" x="0px" y="0px"
	 viewBox="0 0 554.2 242" style="enable-background:new 0 0 554.2 242;" xml:space="preserve">
<g>
	<path id="u_00000168837081123816998100000000645940242617741441_" d="M468.8,55.2c2.1,0,2.7,0.9,2.7,2.7v81
		c0,17.3,8.8,29.7,29.1,29.7c17.6,0,29.1-12.4,29.1-29.4v-81c0-2.1,0.9-3,3-3h18.5c1.8,0,3,0.9,3,2.7v127c0,2.1-0.9,3-2.7,3h-17.9
		c-2.1,0-2.7-0.9-2.7-3V177l-0.9-0.3c-9.4,8.8-24.6,12.7-35.8,12.7c-30,0-47.1-20.3-47.1-50.3v-81c0-2.1,0.9-3,2.7-3L468.8,55.2
		L468.8,55.2z"/>
	<path id="g_00000153683168884729033780000011292195038503880330_" d="M326.5,138.9c-14.3-6.4-22.2-23.1-22.2-39.4
		c0-25.7,23.1-45.8,50.2-45.8c12.9,0,27.2,3.5,35.3,12c8.8-7,18.4-11.1,27.7-11.1c3.2-0.3,4.1,1.5,4.1,4.4v14.9
		c0,3.2-0.3,3.5-4.4,3.2c-5.3-0.3-12.3,0.3-16.1,1.7c4.1,7.3,5.8,13.7,5.8,20.7c0,26.8-24,46.1-52.6,46.1c-3.2,0-5.6,0.3-6.7,0.6
		c-9.9,2.3-20.7,13.7-20.2,22.2c13.4-3.5,28-4.4,34.5-4.4c26.9,0,58.1,8.2,58.1,37.9c0,16.9-15.5,33-30.7,39.4
		c-2.9,1.5-4.7,0.6-6.1-1.7l-6.4-9.9c-1.2-1.8-0.6-3.5,1.7-5c9.6-5.8,17.5-14.3,17.5-21.9c0-14.3-18.7-18.1-33.6-18.1
		c-12.6,0-29.5,2.3-43.8,4.7c-4.7,0.6-5.8-0.6-7.3-2.6c-3.5-5-5.3-12-5.3-19.3c0-10.5,8.2-21.6,20.1-28L326.5,138.9L326.5,138.9z
		 M327.7,100.7c0,14,9.9,26.5,26.9,26.5c18.1,0,28.6-12,28.6-26.5c0-14.3-11.1-26.8-26.9-26.8C338.8,73.8,327.7,86.4,327.7,100.7z"
		/>
	<path id="n_00000041995813476687973680000010932968796811976597_" d="M257.4,189.5c-2.1,0-2.7-0.9-2.7-2.7v-81
		c0-17.3-8.8-29.7-29.1-29.7c-17.6,0-29.1,12.4-29.1,29.4v81c0,2.1-0.9,3-3,3H175c-1.8,0-3-0.9-3-2.7V59.7c0-2.1,0.9-3,2.7-3h17.9
		c2.1,0,2.7,0.9,2.7,3v7.9l0.9,0.3c9.4-8.8,24.6-12.7,35.8-12.7c30.1,0,47.1,20.3,47.1,50.3v81c0,2.1-0.9,3-2.7,3H257.4z"/>
	<path id="i_00000159438586124491209330000004613560877093287059_" d="M122,59.7c0-2.1,0.9-3,2.7-3h18.8c2.1,0,3,0.9,3,3v127.1
		c0,2.1-0.6,2.7-2.7,2.7H125c-1.8,0-3-0.9-3-2.7V59.7z"/>
	<path id="s_00000049912880380410302730000013550728784562587029_" d="M0.3,160.2c-0.6-1.5-0.3-2.7,1.2-3.3l15.3-6.9
		c1.8-0.9,3,0.3,3.6,1.5c6,11.4,17.1,18.6,30.6,18.6c12.9,0,22.5-7.8,22.5-16.8c0-9.6-7.2-13.8-18.9-18.3
		C36,127.8,3.8,120.9,3.8,92.1c0-24.3,21.6-36.6,45.3-36.9c16.5-0.3,32.7,5.4,44.2,17.7c1.5,1.5,0.9,3.3-0.9,5.1l-8.1,9.3
		c-2.1,2.4-4.2,2.1-6.9-0.3c-8.1-7.2-18.6-11.7-28.5-11.7c-13.2,0-21.6,5.7-21.6,15c0,8.7,7.2,13.8,18.6,18
		c23.4,8.7,50.8,15.3,50.8,44.1c0,20.1-17.1,37.2-47.5,37.2C27.9,189.6,8.4,180,0.3,160.2z"/>
	<ellipse cx="134.3" cy="15" rx="15" ry="15"/>
</g>
</svg>
